<svg xmlns="http://www.w3.org/2000/svg" width="656" height="656" viewBox="0 0 656 656" shape-rendering="crispEdges"><rect width="656" height="656" fill="#ffffff"/><g fill="#0e1a13"><rect x="64" y="64" width="16" height="16"/><rect x="80" y="64" width="16" height="16"/><rect x="96" y="64" width="16" height="16"/><rect x="112" y="64" width="16" height="16"/><rect x="128" y="64" width="16" height="16"/><rect x="144" y="64" width="16" height="16"/><rect x="160" y="64" width="16" height="16"/><rect x="192" y="64" width="16" height="16"/><rect x="224" y="64" width="16" height="16"/><rect x="240" y="64" width="16" height="16"/><rect x="272" y="64" width="16" height="16"/><rect x="304" y="64" width="16" height="16"/><rect x="320" y="64" width="16" height="16"/><rect x="416" y="64" width="16" height="16"/><rect x="432" y="64" width="16" height="16"/><rect x="480" y="64" width="16" height="16"/><rect x="496" y="64" width="16" height="16"/><rect x="512" y="64" width="16" height="16"/><rect x="528" y="64" width="16" height="16"/><rect x="544" y="64" width="16" height="16"/><rect x="560" y="64" width="16" height="16"/><rect x="576" y="64" width="16" height="16"/><rect x="64" y="80" width="16" height="16"/><rect x="160" y="80" width="16" height="16"/><rect x="208" y="80" width="16" height="16"/><rect x="224" y="80" width="16" height="16"/><rect x="240" y="80" width="16" height="16"/><rect x="272" y="80" width="16" height="16"/><rect x="288" y="80" width="16" height="16"/><rect x="320" y="80" width="16" height="16"/><rect x="352" y="80" width="16" height="16"/><rect x="368" y="80" width="16" height="16"/><rect x="480" y="80" width="16" height="16"/><rect x="576" y="80" width="16" height="16"/><rect x="64" y="96" width="16" height="16"/><rect x="96" y="96" width="16" height="16"/><rect x="112" y="96" width="16" height="16"/><rect x="128" y="96" width="16" height="16"/><rect x="160" y="96" width="16" height="16"/><rect x="208" y="96" width="16" height="16"/><rect x="224" y="96" width="16" height="16"/><rect x="256" y="96" width="16" height="16"/><rect x="288" y="96" width="16" height="16"/><rect x="304" y="96" width="16" height="16"/><rect x="320" y="96" width="16" height="16"/><rect x="336" y="96" width="16" height="16"/><rect x="352" y="96" width="16" height="16"/><rect x="384" y="96" width="16" height="16"/><rect x="400" y="96" width="16" height="16"/><rect x="432" y="96" width="16" height="16"/><rect x="480" y="96" width="16" height="16"/><rect x="512" y="96" width="16" height="16"/><rect x="528" y="96" width="16" height="16"/><rect x="544" y="96" width="16" height="16"/><rect x="576" y="96" width="16" height="16"/><rect x="64" y="112" width="16" height="16"/><rect x="96" y="112" width="16" height="16"/><rect x="112" y="112" width="16" height="16"/><rect x="128" y="112" width="16" height="16"/><rect x="160" y="112" width="16" height="16"/><rect x="192" y="112" width="16" height="16"/><rect x="240" y="112" width="16" height="16"/><rect x="256" y="112" width="16" height="16"/><rect x="320" y="112" width="16" height="16"/><rect x="336" y="112" width="16" height="16"/><rect x="368" y="112" width="16" height="16"/><rect x="400" y="112" width="16" height="16"/><rect x="416" y="112" width="16" height="16"/><rect x="480" y="112" width="16" height="16"/><rect x="512" y="112" width="16" height="16"/><rect x="528" y="112" width="16" height="16"/><rect x="544" y="112" width="16" height="16"/><rect x="576" y="112" width="16" height="16"/><rect x="64" y="128" width="16" height="16"/><rect x="96" y="128" width="16" height="16"/><rect x="112" y="128" width="16" height="16"/><rect x="128" y="128" width="16" height="16"/><rect x="160" y="128" width="16" height="16"/><rect x="192" y="128" width="16" height="16"/><rect x="208" y="128" width="16" height="16"/><rect x="256" y="128" width="16" height="16"/><rect x="272" y="128" width="16" height="16"/><rect x="320" y="128" width="16" height="16"/><rect x="368" y="128" width="16" height="16"/><rect x="416" y="128" width="16" height="16"/><rect x="480" y="128" width="16" height="16"/><rect x="512" y="128" width="16" height="16"/><rect x="528" y="128" width="16" height="16"/><rect x="544" y="128" width="16" height="16"/><rect x="576" y="128" width="16" height="16"/><rect x="64" y="144" width="16" height="16"/><rect x="160" y="144" width="16" height="16"/><rect x="192" y="144" width="16" height="16"/><rect x="208" y="144" width="16" height="16"/><rect x="240" y="144" width="16" height="16"/><rect x="256" y="144" width="16" height="16"/><rect x="272" y="144" width="16" height="16"/><rect x="304" y="144" width="16" height="16"/><rect x="384" y="144" width="16" height="16"/><rect x="400" y="144" width="16" height="16"/><rect x="432" y="144" width="16" height="16"/><rect x="448" y="144" width="16" height="16"/><rect x="480" y="144" width="16" height="16"/><rect x="576" y="144" width="16" height="16"/><rect x="64" y="160" width="16" height="16"/><rect x="80" y="160" width="16" height="16"/><rect x="96" y="160" width="16" height="16"/><rect x="112" y="160" width="16" height="16"/><rect x="128" y="160" width="16" height="16"/><rect x="144" y="160" width="16" height="16"/><rect x="160" y="160" width="16" height="16"/><rect x="192" y="160" width="16" height="16"/><rect x="224" y="160" width="16" height="16"/><rect x="256" y="160" width="16" height="16"/><rect x="288" y="160" width="16" height="16"/><rect x="320" y="160" width="16" height="16"/><rect x="352" y="160" width="16" height="16"/><rect x="384" y="160" width="16" height="16"/><rect x="416" y="160" width="16" height="16"/><rect x="448" y="160" width="16" height="16"/><rect x="480" y="160" width="16" height="16"/><rect x="496" y="160" width="16" height="16"/><rect x="512" y="160" width="16" height="16"/><rect x="528" y="160" width="16" height="16"/><rect x="544" y="160" width="16" height="16"/><rect x="560" y="160" width="16" height="16"/><rect x="576" y="160" width="16" height="16"/><rect x="192" y="176" width="16" height="16"/><rect x="224" y="176" width="16" height="16"/><rect x="240" y="176" width="16" height="16"/><rect x="256" y="176" width="16" height="16"/><rect x="336" y="176" width="16" height="16"/><rect x="352" y="176" width="16" height="16"/><rect x="368" y="176" width="16" height="16"/><rect x="384" y="176" width="16" height="16"/><rect x="400" y="176" width="16" height="16"/><rect x="416" y="176" width="16" height="16"/><rect x="448" y="176" width="16" height="16"/><rect x="64" y="192" width="16" height="16"/><rect x="128" y="192" width="16" height="16"/><rect x="160" y="192" width="16" height="16"/><rect x="176" y="192" width="16" height="16"/><rect x="192" y="192" width="16" height="16"/><rect x="224" y="192" width="16" height="16"/><rect x="256" y="192" width="16" height="16"/><rect x="304" y="192" width="16" height="16"/><rect x="336" y="192" width="16" height="16"/><rect x="384" y="192" width="16" height="16"/><rect x="400" y="192" width="16" height="16"/><rect x="416" y="192" width="16" height="16"/><rect x="432" y="192" width="16" height="16"/><rect x="448" y="192" width="16" height="16"/><rect x="464" y="192" width="16" height="16"/><rect x="480" y="192" width="16" height="16"/><rect x="496" y="192" width="16" height="16"/><rect x="512" y="192" width="16" height="16"/><rect x="528" y="192" width="16" height="16"/><rect x="576" y="192" width="16" height="16"/><rect x="96" y="208" width="16" height="16"/><rect x="144" y="208" width="16" height="16"/><rect x="192" y="208" width="16" height="16"/><rect x="208" y="208" width="16" height="16"/><rect x="240" y="208" width="16" height="16"/><rect x="256" y="208" width="16" height="16"/><rect x="288" y="208" width="16" height="16"/><rect x="304" y="208" width="16" height="16"/><rect x="320" y="208" width="16" height="16"/><rect x="336" y="208" width="16" height="16"/><rect x="352" y="208" width="16" height="16"/><rect x="400" y="208" width="16" height="16"/><rect x="416" y="208" width="16" height="16"/><rect x="432" y="208" width="16" height="16"/><rect x="464" y="208" width="16" height="16"/><rect x="528" y="208" width="16" height="16"/><rect x="544" y="208" width="16" height="16"/><rect x="560" y="208" width="16" height="16"/><rect x="64" y="224" width="16" height="16"/><rect x="80" y="224" width="16" height="16"/><rect x="112" y="224" width="16" height="16"/><rect x="160" y="224" width="16" height="16"/><rect x="176" y="224" width="16" height="16"/><rect x="208" y="224" width="16" height="16"/><rect x="256" y="224" width="16" height="16"/><rect x="272" y="224" width="16" height="16"/><rect x="288" y="224" width="16" height="16"/><rect x="304" y="224" width="16" height="16"/><rect x="352" y="224" width="16" height="16"/><rect x="384" y="224" width="16" height="16"/><rect x="432" y="224" width="16" height="16"/><rect x="464" y="224" width="16" height="16"/><rect x="480" y="224" width="16" height="16"/><rect x="528" y="224" width="16" height="16"/><rect x="128" y="240" width="16" height="16"/><rect x="144" y="240" width="16" height="16"/><rect x="176" y="240" width="16" height="16"/><rect x="272" y="240" width="16" height="16"/><rect x="384" y="240" width="16" height="16"/><rect x="416" y="240" width="16" height="16"/><rect x="448" y="240" width="16" height="16"/><rect x="464" y="240" width="16" height="16"/><rect x="480" y="240" width="16" height="16"/><rect x="576" y="240" width="16" height="16"/><rect x="64" y="256" width="16" height="16"/><rect x="96" y="256" width="16" height="16"/><rect x="112" y="256" width="16" height="16"/><rect x="160" y="256" width="16" height="16"/><rect x="256" y="256" width="16" height="16"/><rect x="272" y="256" width="16" height="16"/><rect x="320" y="256" width="16" height="16"/><rect x="416" y="256" width="16" height="16"/><rect x="448" y="256" width="16" height="16"/><rect x="480" y="256" width="16" height="16"/><rect x="512" y="256" width="16" height="16"/><rect x="528" y="256" width="16" height="16"/><rect x="560" y="256" width="16" height="16"/><rect x="576" y="256" width="16" height="16"/><rect x="64" y="272" width="16" height="16"/><rect x="80" y="272" width="16" height="16"/><rect x="112" y="272" width="16" height="16"/><rect x="192" y="272" width="16" height="16"/><rect x="224" y="272" width="16" height="16"/><rect x="256" y="272" width="16" height="16"/><rect x="288" y="272" width="16" height="16"/><rect x="336" y="272" width="16" height="16"/><rect x="352" y="272" width="16" height="16"/><rect x="368" y="272" width="16" height="16"/><rect x="384" y="272" width="16" height="16"/><rect x="448" y="272" width="16" height="16"/><rect x="464" y="272" width="16" height="16"/><rect x="496" y="272" width="16" height="16"/><rect x="528" y="272" width="16" height="16"/><rect x="64" y="288" width="16" height="16"/><rect x="80" y="288" width="16" height="16"/><rect x="96" y="288" width="16" height="16"/><rect x="112" y="288" width="16" height="16"/><rect x="144" y="288" width="16" height="16"/><rect x="160" y="288" width="16" height="16"/><rect x="176" y="288" width="16" height="16"/><rect x="192" y="288" width="16" height="16"/><rect x="208" y="288" width="16" height="16"/><rect x="224" y="288" width="16" height="16"/><rect x="240" y="288" width="16" height="16"/><rect x="272" y="288" width="16" height="16"/><rect x="304" y="288" width="16" height="16"/><rect x="352" y="288" width="16" height="16"/><rect x="384" y="288" width="16" height="16"/><rect x="416" y="288" width="16" height="16"/><rect x="432" y="288" width="16" height="16"/><rect x="448" y="288" width="16" height="16"/><rect x="464" y="288" width="16" height="16"/><rect x="480" y="288" width="16" height="16"/><rect x="496" y="288" width="16" height="16"/><rect x="528" y="288" width="16" height="16"/><rect x="544" y="288" width="16" height="16"/><rect x="560" y="288" width="16" height="16"/><rect x="96" y="304" width="16" height="16"/><rect x="112" y="304" width="16" height="16"/><rect x="144" y="304" width="16" height="16"/><rect x="176" y="304" width="16" height="16"/><rect x="192" y="304" width="16" height="16"/><rect x="208" y="304" width="16" height="16"/><rect x="224" y="304" width="16" height="16"/><rect x="240" y="304" width="16" height="16"/><rect x="256" y="304" width="16" height="16"/><rect x="272" y="304" width="16" height="16"/><rect x="304" y="304" width="16" height="16"/><rect x="320" y="304" width="16" height="16"/><rect x="336" y="304" width="16" height="16"/><rect x="400" y="304" width="16" height="16"/><rect x="448" y="304" width="16" height="16"/><rect x="464" y="304" width="16" height="16"/><rect x="480" y="304" width="16" height="16"/><rect x="496" y="304" width="16" height="16"/><rect x="512" y="304" width="16" height="16"/><rect x="80" y="320" width="16" height="16"/><rect x="96" y="320" width="16" height="16"/><rect x="128" y="320" width="16" height="16"/><rect x="144" y="320" width="16" height="16"/><rect x="160" y="320" width="16" height="16"/><rect x="176" y="320" width="16" height="16"/><rect x="208" y="320" width="16" height="16"/><rect x="256" y="320" width="16" height="16"/><rect x="336" y="320" width="16" height="16"/><rect x="368" y="320" width="16" height="16"/><rect x="384" y="320" width="16" height="16"/><rect x="400" y="320" width="16" height="16"/><rect x="416" y="320" width="16" height="16"/><rect x="432" y="320" width="16" height="16"/><rect x="448" y="320" width="16" height="16"/><rect x="480" y="320" width="16" height="16"/><rect x="512" y="320" width="16" height="16"/><rect x="560" y="320" width="16" height="16"/><rect x="64" y="336" width="16" height="16"/><rect x="80" y="336" width="16" height="16"/><rect x="144" y="336" width="16" height="16"/><rect x="176" y="336" width="16" height="16"/><rect x="192" y="336" width="16" height="16"/><rect x="256" y="336" width="16" height="16"/><rect x="288" y="336" width="16" height="16"/><rect x="304" y="336" width="16" height="16"/><rect x="320" y="336" width="16" height="16"/><rect x="352" y="336" width="16" height="16"/><rect x="416" y="336" width="16" height="16"/><rect x="432" y="336" width="16" height="16"/><rect x="464" y="336" width="16" height="16"/><rect x="528" y="336" width="16" height="16"/><rect x="544" y="336" width="16" height="16"/><rect x="560" y="336" width="16" height="16"/><rect x="112" y="352" width="16" height="16"/><rect x="160" y="352" width="16" height="16"/><rect x="208" y="352" width="16" height="16"/><rect x="224" y="352" width="16" height="16"/><rect x="240" y="352" width="16" height="16"/><rect x="272" y="352" width="16" height="16"/><rect x="288" y="352" width="16" height="16"/><rect x="304" y="352" width="16" height="16"/><rect x="320" y="352" width="16" height="16"/><rect x="336" y="352" width="16" height="16"/><rect x="384" y="352" width="16" height="16"/><rect x="400" y="352" width="16" height="16"/><rect x="416" y="352" width="16" height="16"/><rect x="432" y="352" width="16" height="16"/><rect x="448" y="352" width="16" height="16"/><rect x="464" y="352" width="16" height="16"/><rect x="496" y="352" width="16" height="16"/><rect x="528" y="352" width="16" height="16"/><rect x="560" y="352" width="16" height="16"/><rect x="64" y="368" width="16" height="16"/><rect x="96" y="368" width="16" height="16"/><rect x="112" y="368" width="16" height="16"/><rect x="144" y="368" width="16" height="16"/><rect x="176" y="368" width="16" height="16"/><rect x="192" y="368" width="16" height="16"/><rect x="208" y="368" width="16" height="16"/><rect x="256" y="368" width="16" height="16"/><rect x="288" y="368" width="16" height="16"/><rect x="336" y="368" width="16" height="16"/><rect x="352" y="368" width="16" height="16"/><rect x="368" y="368" width="16" height="16"/><rect x="384" y="368" width="16" height="16"/><rect x="400" y="368" width="16" height="16"/><rect x="432" y="368" width="16" height="16"/><rect x="448" y="368" width="16" height="16"/><rect x="496" y="368" width="16" height="16"/><rect x="560" y="368" width="16" height="16"/><rect x="112" y="384" width="16" height="16"/><rect x="160" y="384" width="16" height="16"/><rect x="192" y="384" width="16" height="16"/><rect x="208" y="384" width="16" height="16"/><rect x="224" y="384" width="16" height="16"/><rect x="272" y="384" width="16" height="16"/><rect x="304" y="384" width="16" height="16"/><rect x="352" y="384" width="16" height="16"/><rect x="384" y="384" width="16" height="16"/><rect x="432" y="384" width="16" height="16"/><rect x="448" y="384" width="16" height="16"/><rect x="480" y="384" width="16" height="16"/><rect x="528" y="384" width="16" height="16"/><rect x="576" y="384" width="16" height="16"/><rect x="64" y="400" width="16" height="16"/><rect x="128" y="400" width="16" height="16"/><rect x="240" y="400" width="16" height="16"/><rect x="272" y="400" width="16" height="16"/><rect x="288" y="400" width="16" height="16"/><rect x="320" y="400" width="16" height="16"/><rect x="336" y="400" width="16" height="16"/><rect x="368" y="400" width="16" height="16"/><rect x="416" y="400" width="16" height="16"/><rect x="432" y="400" width="16" height="16"/><rect x="448" y="400" width="16" height="16"/><rect x="464" y="400" width="16" height="16"/><rect x="496" y="400" width="16" height="16"/><rect x="560" y="400" width="16" height="16"/><rect x="112" y="416" width="16" height="16"/><rect x="144" y="416" width="16" height="16"/><rect x="160" y="416" width="16" height="16"/><rect x="224" y="416" width="16" height="16"/><rect x="288" y="416" width="16" height="16"/><rect x="320" y="416" width="16" height="16"/><rect x="336" y="416" width="16" height="16"/><rect x="368" y="416" width="16" height="16"/><rect x="400" y="416" width="16" height="16"/><rect x="432" y="416" width="16" height="16"/><rect x="448" y="416" width="16" height="16"/><rect x="560" y="416" width="16" height="16"/><rect x="144" y="432" width="16" height="16"/><rect x="208" y="432" width="16" height="16"/><rect x="224" y="432" width="16" height="16"/><rect x="336" y="432" width="16" height="16"/><rect x="352" y="432" width="16" height="16"/><rect x="368" y="432" width="16" height="16"/><rect x="384" y="432" width="16" height="16"/><rect x="400" y="432" width="16" height="16"/><rect x="416" y="432" width="16" height="16"/><rect x="432" y="432" width="16" height="16"/><rect x="464" y="432" width="16" height="16"/><rect x="560" y="432" width="16" height="16"/><rect x="576" y="432" width="16" height="16"/><rect x="64" y="448" width="16" height="16"/><rect x="80" y="448" width="16" height="16"/><rect x="112" y="448" width="16" height="16"/><rect x="160" y="448" width="16" height="16"/><rect x="192" y="448" width="16" height="16"/><rect x="208" y="448" width="16" height="16"/><rect x="224" y="448" width="16" height="16"/><rect x="240" y="448" width="16" height="16"/><rect x="288" y="448" width="16" height="16"/><rect x="304" y="448" width="16" height="16"/><rect x="336" y="448" width="16" height="16"/><rect x="384" y="448" width="16" height="16"/><rect x="400" y="448" width="16" height="16"/><rect x="432" y="448" width="16" height="16"/><rect x="448" y="448" width="16" height="16"/><rect x="464" y="448" width="16" height="16"/><rect x="480" y="448" width="16" height="16"/><rect x="496" y="448" width="16" height="16"/><rect x="512" y="448" width="16" height="16"/><rect x="560" y="448" width="16" height="16"/><rect x="192" y="464" width="16" height="16"/><rect x="224" y="464" width="16" height="16"/><rect x="256" y="464" width="16" height="16"/><rect x="272" y="464" width="16" height="16"/><rect x="288" y="464" width="16" height="16"/><rect x="304" y="464" width="16" height="16"/><rect x="336" y="464" width="16" height="16"/><rect x="400" y="464" width="16" height="16"/><rect x="448" y="464" width="16" height="16"/><rect x="512" y="464" width="16" height="16"/><rect x="544" y="464" width="16" height="16"/><rect x="64" y="480" width="16" height="16"/><rect x="80" y="480" width="16" height="16"/><rect x="96" y="480" width="16" height="16"/><rect x="112" y="480" width="16" height="16"/><rect x="128" y="480" width="16" height="16"/><rect x="144" y="480" width="16" height="16"/><rect x="160" y="480" width="16" height="16"/><rect x="192" y="480" width="16" height="16"/><rect x="208" y="480" width="16" height="16"/><rect x="256" y="480" width="16" height="16"/><rect x="304" y="480" width="16" height="16"/><rect x="352" y="480" width="16" height="16"/><rect x="384" y="480" width="16" height="16"/><rect x="448" y="480" width="16" height="16"/><rect x="480" y="480" width="16" height="16"/><rect x="512" y="480" width="16" height="16"/><rect x="528" y="480" width="16" height="16"/><rect x="560" y="480" width="16" height="16"/><rect x="64" y="496" width="16" height="16"/><rect x="160" y="496" width="16" height="16"/><rect x="208" y="496" width="16" height="16"/><rect x="224" y="496" width="16" height="16"/><rect x="240" y="496" width="16" height="16"/><rect x="256" y="496" width="16" height="16"/><rect x="288" y="496" width="16" height="16"/><rect x="304" y="496" width="16" height="16"/><rect x="320" y="496" width="16" height="16"/><rect x="368" y="496" width="16" height="16"/><rect x="416" y="496" width="16" height="16"/><rect x="432" y="496" width="16" height="16"/><rect x="448" y="496" width="16" height="16"/><rect x="512" y="496" width="16" height="16"/><rect x="64" y="512" width="16" height="16"/><rect x="96" y="512" width="16" height="16"/><rect x="112" y="512" width="16" height="16"/><rect x="128" y="512" width="16" height="16"/><rect x="160" y="512" width="16" height="16"/><rect x="192" y="512" width="16" height="16"/><rect x="224" y="512" width="16" height="16"/><rect x="240" y="512" width="16" height="16"/><rect x="256" y="512" width="16" height="16"/><rect x="272" y="512" width="16" height="16"/><rect x="304" y="512" width="16" height="16"/><rect x="320" y="512" width="16" height="16"/><rect x="368" y="512" width="16" height="16"/><rect x="416" y="512" width="16" height="16"/><rect x="448" y="512" width="16" height="16"/><rect x="464" y="512" width="16" height="16"/><rect x="480" y="512" width="16" height="16"/><rect x="496" y="512" width="16" height="16"/><rect x="512" y="512" width="16" height="16"/><rect x="528" y="512" width="16" height="16"/><rect x="560" y="512" width="16" height="16"/><rect x="64" y="528" width="16" height="16"/><rect x="96" y="528" width="16" height="16"/><rect x="112" y="528" width="16" height="16"/><rect x="128" y="528" width="16" height="16"/><rect x="160" y="528" width="16" height="16"/><rect x="208" y="528" width="16" height="16"/><rect x="240" y="528" width="16" height="16"/><rect x="352" y="528" width="16" height="16"/><rect x="368" y="528" width="16" height="16"/><rect x="384" y="528" width="16" height="16"/><rect x="400" y="528" width="16" height="16"/><rect x="432" y="528" width="16" height="16"/><rect x="448" y="528" width="16" height="16"/><rect x="480" y="528" width="16" height="16"/><rect x="496" y="528" width="16" height="16"/><rect x="512" y="528" width="16" height="16"/><rect x="528" y="528" width="16" height="16"/><rect x="560" y="528" width="16" height="16"/><rect x="64" y="544" width="16" height="16"/><rect x="96" y="544" width="16" height="16"/><rect x="112" y="544" width="16" height="16"/><rect x="128" y="544" width="16" height="16"/><rect x="160" y="544" width="16" height="16"/><rect x="208" y="544" width="16" height="16"/><rect x="256" y="544" width="16" height="16"/><rect x="272" y="544" width="16" height="16"/><rect x="304" y="544" width="16" height="16"/><rect x="336" y="544" width="16" height="16"/><rect x="352" y="544" width="16" height="16"/><rect x="384" y="544" width="16" height="16"/><rect x="400" y="544" width="16" height="16"/><rect x="432" y="544" width="16" height="16"/><rect x="448" y="544" width="16" height="16"/><rect x="480" y="544" width="16" height="16"/><rect x="496" y="544" width="16" height="16"/><rect x="512" y="544" width="16" height="16"/><rect x="544" y="544" width="16" height="16"/><rect x="64" y="560" width="16" height="16"/><rect x="160" y="560" width="16" height="16"/><rect x="224" y="560" width="16" height="16"/><rect x="272" y="560" width="16" height="16"/><rect x="304" y="560" width="16" height="16"/><rect x="320" y="560" width="16" height="16"/><rect x="336" y="560" width="16" height="16"/><rect x="400" y="560" width="16" height="16"/><rect x="432" y="560" width="16" height="16"/><rect x="448" y="560" width="16" height="16"/><rect x="480" y="560" width="16" height="16"/><rect x="528" y="560" width="16" height="16"/><rect x="64" y="576" width="16" height="16"/><rect x="80" y="576" width="16" height="16"/><rect x="96" y="576" width="16" height="16"/><rect x="112" y="576" width="16" height="16"/><rect x="128" y="576" width="16" height="16"/><rect x="144" y="576" width="16" height="16"/><rect x="160" y="576" width="16" height="16"/><rect x="192" y="576" width="16" height="16"/><rect x="224" y="576" width="16" height="16"/><rect x="240" y="576" width="16" height="16"/><rect x="256" y="576" width="16" height="16"/><rect x="272" y="576" width="16" height="16"/><rect x="320" y="576" width="16" height="16"/><rect x="336" y="576" width="16" height="16"/><rect x="368" y="576" width="16" height="16"/><rect x="384" y="576" width="16" height="16"/><rect x="400" y="576" width="16" height="16"/><rect x="416" y="576" width="16" height="16"/><rect x="432" y="576" width="16" height="16"/><rect x="448" y="576" width="16" height="16"/><rect x="464" y="576" width="16" height="16"/><rect x="480" y="576" width="16" height="16"/><rect x="576" y="576" width="16" height="16"/></g></svg>